M48
; DRILL file {KiCad 6.0.11-2627ca5db0~126~ubuntu22.04.1} date 2024-01-17T11:00:00 CET
; FORMAT={-:-/ absolute / inch / decimal}
; #@! TF.CreationDate,2024-01-17T11:00:00+01:00
; #@! TF.GenerationSoftware,Kicad,Pcbnew,6.0.11-2627ca5db0~126~ubuntu22.04.1
; #@! TF.FileFunction,Plated,1,2,PTH
FMAT,2
INCH
; #@! TA.AperFunction,Plated,PTH,ComponentDrill
T1C0.0394
; #@! TA.AperFunction,Plated,PTH,ComponentDrill
T2C0.0512
; #@! TA.AperFunction,Plated,PTH,ComponentDrill
T3C0.0669
; #@! TA.AperFunction,Plated,PTH,ComponentDrill
T4C0.0787
; #@! TA.AperFunction,Plated,PTH,ComponentDrill
T5C0.1260
%
G90
G05
T1
X4.4923Y-3.9923
X4.5374Y-3.9144
X4.5374Y-4.0703
X4.5825Y-3.9923
X4.6276Y-3.9144
X4.6276Y-4.0703
X4.6726Y-3.9923
X4.7177Y-3.9144
X4.7177Y-4.0703
X4.7628Y-3.9923
X4.8079Y-3.9144
X4.8079Y-4.0703
X4.853Y-3.9923
X4.898Y-3.9144
X4.898Y-4.0703
T2
X4.6719Y-3.3976
X4.7465Y-3.1976
X4.8219Y-3.3976
X4.8965Y-3.1976
X4.9719Y-3.3976
X5.0465Y-3.1976
X5.1219Y-3.3976
X5.1965Y-3.1976
X5.2719Y-3.3976
X5.3465Y-3.1976
X5.4219Y-3.3976
X5.4965Y-3.1976
X5.5719Y-3.3976
X5.6465Y-3.1976
X5.7219Y-3.3976
X5.7965Y-3.1976
X5.8719Y-3.3976
X5.9465Y-3.1976
X6.0219Y-3.3976
X6.0965Y-3.1976
X6.1719Y-3.3976
T3
X5.6346Y-3.9949
X6.3835Y-3.9937
T4
X5.5717Y-3.7921
X5.5717Y-4.1976
X6.3205Y-3.7909
X6.3205Y-4.1965
T5
X4.2152Y-3.9923
X5.1994Y-3.9923
X5.9579Y-3.9949
T0
M30
