%TF.GenerationSoftware,KiCad,Pcbnew,6.0.11-2627ca5db0~126~ubuntu22.04.1*%
%TF.CreationDate,2024-01-17T10:59:56+01:00*%
%TF.ProjectId,SCART-TO-HD15,53434152-542d-4544-9f2d-484431352e6b,rev?*%
%TF.SameCoordinates,Original*%
%TF.FileFunction,Legend,Top*%
%TF.FilePolarity,Positive*%
%FSLAX46Y46*%
G04 Gerber Fmt 4.6, Leading zero omitted, Abs format (unit mm)*
G04 Created by KiCad (PCBNEW 6.0.11-2627ca5db0~126~ubuntu22.04.1) date 2024-01-17 10:59:56*
%MOMM*%
%LPD*%
G01*
G04 APERTURE LIST*
%ADD10C,0.300000*%
%ADD11C,0.150000*%
%ADD12C,0.120000*%
%ADD13O,2.000000X4.800000*%
%ADD14C,2.200000*%
G04 APERTURE END LIST*
D10*
X158540000Y-94058571D02*
X158040000Y-93344285D01*
X157682857Y-94058571D02*
X157682857Y-92558571D01*
X158254285Y-92558571D01*
X158397142Y-92630000D01*
X158468571Y-92701428D01*
X158540000Y-92844285D01*
X158540000Y-93058571D01*
X158468571Y-93201428D01*
X158397142Y-93272857D01*
X158254285Y-93344285D01*
X157682857Y-93344285D01*
X159182857Y-94058571D02*
X159182857Y-92558571D01*
X160682857Y-92630000D02*
X160540000Y-92558571D01*
X160325714Y-92558571D01*
X160111428Y-92630000D01*
X159968571Y-92772857D01*
X159897142Y-92915714D01*
X159825714Y-93201428D01*
X159825714Y-93415714D01*
X159897142Y-93701428D01*
X159968571Y-93844285D01*
X160111428Y-93987142D01*
X160325714Y-94058571D01*
X160468571Y-94058571D01*
X160682857Y-93987142D01*
X160754285Y-93915714D01*
X160754285Y-93415714D01*
X160468571Y-93415714D01*
X161397142Y-94058571D02*
X161397142Y-92558571D01*
X161397142Y-93272857D02*
X162254285Y-93272857D01*
X162254285Y-94058571D02*
X162254285Y-92558571D01*
X162754285Y-92558571D02*
X163611428Y-92558571D01*
X163182857Y-94058571D02*
X163182857Y-92558571D01*
X140081428Y-94088571D02*
X139367142Y-94088571D01*
X139367142Y-92588571D01*
X140581428Y-93302857D02*
X141081428Y-93302857D01*
X141295714Y-94088571D02*
X140581428Y-94088571D01*
X140581428Y-92588571D01*
X141295714Y-92588571D01*
X142438571Y-93302857D02*
X141938571Y-93302857D01*
X141938571Y-94088571D02*
X141938571Y-92588571D01*
X142652857Y-92588571D01*
X143010000Y-92588571D02*
X143867142Y-92588571D01*
X143438571Y-94088571D02*
X143438571Y-92588571D01*
D11*
%TO.C,R1*%
X119782380Y-95386666D02*
X119306190Y-95720000D01*
X119782380Y-95958095D02*
X118782380Y-95958095D01*
X118782380Y-95577142D01*
X118830000Y-95481904D01*
X118877619Y-95434285D01*
X118972857Y-95386666D01*
X119115714Y-95386666D01*
X119210952Y-95434285D01*
X119258571Y-95481904D01*
X119306190Y-95577142D01*
X119306190Y-95958095D01*
X119782380Y-94434285D02*
X119782380Y-95005714D01*
X119782380Y-94720000D02*
X118782380Y-94720000D01*
X118925238Y-94815238D01*
X119020476Y-94910476D01*
X119068095Y-95005714D01*
%TO.C,J1*%
X111037107Y-75505000D02*
X111037107Y-92015000D01*
X111037107Y-92015000D02*
X163737107Y-92015000D01*
X111037107Y-75505000D02*
X163737107Y-75505000D01*
X163742107Y-75505000D02*
X163742107Y-92005000D01*
D12*
%TO.C,R1*%
X121715000Y-95447064D02*
X121715000Y-94992936D01*
X120245000Y-95447064D02*
X120245000Y-94992936D01*
%TD*%
D13*
%TO.C,J1*%
X114847107Y-83760000D03*
D14*
X156767107Y-86300000D03*
X154852107Y-81220000D03*
X152957107Y-86300000D03*
X151042107Y-81220000D03*
X149147107Y-86300000D03*
X147232107Y-81220000D03*
X145337107Y-86300000D03*
X143422107Y-81220000D03*
X141527107Y-86300000D03*
X139612107Y-81220000D03*
X137717107Y-86300000D03*
X135802107Y-81220000D03*
X133907107Y-86300000D03*
X131992107Y-81220000D03*
X130097107Y-86300000D03*
X128182107Y-81220000D03*
X126287107Y-86300000D03*
X124372107Y-81220000D03*
X122477107Y-86300000D03*
X120562107Y-81220000D03*
X118667107Y-86300000D03*
%TD*%
M02*
